<?xml version="1.0" standalone="no"?><!DOCTYPE svg PUBLIC "-//W3C//DTD SVG 1.1//EN" "http://www.w3.org/Graphics/SVG/1.1/DTD/svg11.dtd"><svg t="1605850710224" class="icon" viewBox="0 0 1024 1024" version="1.1" xmlns="http://www.w3.org/2000/svg" p-id="6540" xmlns:xlink="http://www.w3.org/1999/xlink" width="128" height="128"><defs><style type="text/css"></style></defs><path d="M890.12736 479.37024H263.168A175.68256 175.68256 0 0 1 263.168 128h626.95936a46.70976 46.70976 0 0 1 44.4672 32.18432 47.26272 47.26272 0 0 1-16.82944 52.80768 112.86528 112.86528 0 0 0 0 181.40672 47.27808 47.27808 0 0 1 16.82944 52.80768 46.70976 46.70976 0 0 1-44.4672 32.16384z m-12.64128-30.34624zM263.168 195.93728a107.7504 107.7504 0 0 0 0 215.49568h576.80384a180.61312 180.61312 0 0 1 0-215.49568H263.168z" fill="#4A4A4A" p-id="6541"></path><path d="M760.832 896H133.87264a46.70976 46.70976 0 0 1-44.47232-32.18944A47.25248 47.25248 0 0 1 106.24 811.008a112.8704 112.8704 0 0 0 0-181.4016 47.27296 47.27296 0 0 1-16.83456-52.80256 46.70976 46.70976 0 0 1 44.47232-32.18432H760.832a175.68256 175.68256 0 0 1 0 351.38048zM184.03328 828.06272H760.832a107.7504 107.7504 0 0 0 0-215.5008H184.03328a180.61824 180.61824 0 0 1 0 215.5008z" fill="#FF7214" p-id="6542"></path></svg>