<?xml version="1.0" standalone="no"?><!DOCTYPE svg PUBLIC "-//W3C//DTD SVG 1.1//EN" "http://www.w3.org/Graphics/SVG/1.1/DTD/svg11.dtd"><svg t="1606054066967" class="icon" viewBox="0 0 1024 1024" version="1.1" xmlns="http://www.w3.org/2000/svg" p-id="1724" width="200" height="200" xmlns:xlink="http://www.w3.org/1999/xlink"><defs><style type="text/css"></style></defs><path d="M908.88704 870.6304h-46.98112v-86.27712a46.73536 46.73536 0 0 0-10.30656-29.184l-194.78016-241.36192 175.104-233.7792a46.79168 46.79168 0 0 0 9.25696-27.83744v-93.696h47.80032a33.16224 33.16224 0 1 0 0-66.3296H129.90976a33.16224 33.16224 0 1 0 0 66.3296h52.6848v93.696a46.73536 46.73536 0 0 0 9.27744 27.8528l175.07328 233.76896L172.13952 755.2a46.68928 46.68928 0 0 0-10.27584 29.15328v86.27712H109.99296a33.16736 33.16736 0 1 0 0 66.3296h798.89408a33.16736 33.16736 0 1 0 0-66.3296zM228.25472 791.34208l200.04352-247.88992A46.40768 46.40768 0 0 0 429.34272 486.4L248.9856 245.58592V158.4896h525.824v87.09632L594.432 486.4a46.44864 46.44864 0 0 0 1.024 57.0368l200.064 247.90528v79.2832H228.25472v-79.2832z" fill="#4A4A4A" p-id="1725"></path><path d="M350.5408 798.57664a33.14688 33.14688 0 0 1-14.45376-63.00672c7.552-3.6352 187.04896-88.12544 348.06784-0.8704a33.152 33.152 0 1 1-31.61088 58.28608c-130.7904-70.85568-286.208 1.62816-287.744 2.35008a33.07008 33.07008 0 0 1-14.2592 3.24096z m171.34592-466.432a467.968 467.968 0 0 1-185.79456-40.2432 33.152 33.152 0 0 1 28.71808-59.76576c1.536 0.72704 156.94848 73.216 287.744 2.3552a33.152 33.152 0 1 1 31.61088 58.2912 337.408 337.408 0 0 1-162.28352 39.3472z" fill="#FF7214" p-id="1726"></path></svg>