<?xml version="1.0" standalone="no"?><!DOCTYPE svg PUBLIC "-//W3C//DTD SVG 1.1//EN" "http://www.w3.org/Graphics/SVG/1.1/DTD/svg11.dtd"><svg t="1605971583470" class="icon" viewBox="0 0 1024 1024" version="1.1" xmlns="http://www.w3.org/2000/svg" p-id="5292" xmlns:xlink="http://www.w3.org/1999/xlink" width="200" height="200"><defs><style type="text/css"></style></defs><path d="M853.30944 723.77856h-19.968V486.52288a323.49696 323.49696 0 0 0-212.74112-303.28832v-39.81312C620.61056 89.74848 570.73664 46.08 509.44 46.08s-111.17056 43.66848-111.17056 97.34144v39.81312a323.49184 323.49184 0 0 0-212.74112 303.28832v237.25568h-19.968a32.35328 32.35328 0 1 0 0 64.70144h687.74912a32.35328 32.35328 0 1 0 0-64.70144zM463.17568 143.42144c0-17.6896 21.18656-32.64 46.26432-32.64s46.26432 14.9504 46.26432 32.64v23.552a321.48992 321.48992 0 0 0-92.52864 0v-23.552zM250.43456 723.77856V486.52288a259.00544 259.00544 0 0 1 518.01088 0v237.25568H250.43456z" fill="#4A4A4A" p-id="5293"></path><path d="M510.976 984.448a131.38432 131.38432 0 0 1-131.64544-130.7904 32.51712 32.51712 0 0 1 65.024 0 66.64192 66.64192 0 0 0 133.27872 0 32.51712 32.51712 0 0 1 65.024 0A131.3792 131.3792 0 0 1 510.976 984.448z" fill="#FF7214" p-id="5294"></path></svg>