<?xml version="1.0" standalone="no"?><!DOCTYPE svg PUBLIC "-//W3C//DTD SVG 1.1//EN" "http://www.w3.org/Graphics/SVG/1.1/DTD/svg11.dtd"><svg t="1605850657922" class="icon" viewBox="0 0 1024 1024" version="1.1" xmlns="http://www.w3.org/2000/svg" p-id="6060" xmlns:xlink="http://www.w3.org/1999/xlink" width="128" height="128"><defs><style type="text/css"></style></defs><path d="M908.51328 865.28H120.61184A49.00864 49.00864 0 0 1 71.68 816.29696V212.82816A49.00864 49.00864 0 0 1 120.61184 163.84h787.90144A49.00864 49.00864 0 0 1 957.44 212.82816v603.4688a49.00352 49.00352 0 0 1-48.92672 48.98304zM141.47072 795.40736h746.17856V233.71264H141.47072v561.69472z" fill="#4A4A4A" p-id="6061"></path><path d="M242.75968 734.72a34.944 34.944 0 0 1-25.92768-58.31168l134.29248-149.67808a48.94208 48.94208 0 0 1 68.97664-3.76832l97.20832 87.0912 113.19296-165.08928a48.8448 48.8448 0 0 1 75.13088-6.656l102.66112 104.30976a34.91328 34.91328 0 0 1-49.664 49.08032l-84.94592-86.28224-112.3072 163.80416a48.8448 48.8448 0 0 1-72.90368 8.77568L389.12 588.96384 268.71808 723.1488a34.75456 34.75456 0 0 1-25.9584 11.5712z m220.30336-353.8432a45.44 45.44 0 1 0-45.44 45.52704 45.48608 45.48608 0 0 0 45.44-45.52704z" fill="#FF7214" p-id="6062"></path></svg>