<?xml version="1.0" standalone="no"?><!DOCTYPE svg PUBLIC "-//W3C//DTD SVG 1.1//EN" "http://www.w3.org/Graphics/SVG/1.1/DTD/svg11.dtd"><svg t="1605850644400" class="icon" viewBox="0 0 1024 1024" version="1.1" xmlns="http://www.w3.org/2000/svg" p-id="5900" xmlns:xlink="http://www.w3.org/1999/xlink" width="128" height="128"><defs><style type="text/css"></style></defs><path d="M118.0928 845.3376a32.256 32.256 0 0 1-23.13728-54.72768l301.11232-309.632a32.256 32.256 0 1 1 46.2848 44.9536L141.24032 835.584a32.17408 32.17408 0 0 1-23.14752 9.7536z m787.36896 0a32.20992 32.20992 0 0 1-24.27392-10.98752l-277.61152-316.35456a32.256 32.256 0 0 1 48.52736-42.53184l277.61152 316.35456a32.256 32.256 0 0 1-24.25344 53.51936z" fill="#FF7214" p-id="5901"></path><path d="M907.0336 163.84H116.9664A45.3632 45.3632 0 0 0 71.68 209.1776v605.63968A45.3632 45.3632 0 0 0 116.9664 860.16h790.0672a45.3632 45.3632 0 0 0 45.2864-45.34272V209.1776A45.3632 45.3632 0 0 0 907.0336 163.84z m-73.28256 64.67584L516.608 525.72672 185.6256 228.51584h648.12544zM136.27392 795.48416V271.08352l350.34624 314.61376a45.0048 45.0048 0 0 0 61.18912-0.64512l339.9168-318.53568v528.96768H136.27392z" fill="#4A4A4A" p-id="5902"></path></svg>