<?xml version="1.0" standalone="no"?><!DOCTYPE svg PUBLIC "-//W3C//DTD SVG 1.1//EN" "http://www.w3.org/Graphics/SVG/1.1/DTD/svg11.dtd"><svg t="1605971410436" class="icon" viewBox="0 0 1024 1024" version="1.1" xmlns="http://www.w3.org/2000/svg" p-id="4857" xmlns:xlink="http://www.w3.org/1999/xlink" width="200" height="200"><defs><style type="text/css"></style></defs><path d="M448.71168 269.03552h136.7552a33.7408 33.7408 0 1 0 0-67.4816h-136.7552a33.7408 33.7408 0 1 0 0 67.4816z m461.38368-67.4816h-159.16544a33.7408 33.7408 0 1 0 0 67.4816h138.97728v103.47008H139.2128V269.03552h140.66688a33.7408 33.7408 0 1 0 0-67.4816H119.02464A47.37536 47.37536 0 0 0 71.68 248.8576V853.8112a47.38048 47.38048 0 0 0 47.34464 47.3088h791.07072a47.37536 47.37536 0 0 0 47.34464-47.3088V248.8576a47.37536 47.37536 0 0 0-47.34464-47.30368zM139.2128 833.6384V439.99232h750.6944v393.64608H139.2128z m223.39584-496.55808a33.75104 33.75104 0 0 0 33.792-33.7408V151.5008a33.792 33.792 0 0 0-67.5328 0v151.83872a33.75104 33.75104 0 0 0 33.7408 33.7408z m306.43712 0a33.75616 33.75616 0 0 0 33.7664-33.7408V151.5008a33.792 33.792 0 0 0-67.5328 0v151.83872a33.75104 33.75104 0 0 0 33.76128 33.7408z m139.8528 330.10176h-126.62784a33.74592 33.74592 0 1 0 0 67.48672h126.62272a33.74592 33.74592 0 1 0 0-67.48672z" fill="#4A4A4A" p-id="4858"></path><path d="M344.064 599.58784H217.39008a33.67936 33.67936 0 1 1 0-67.3536H344.064a33.67936 33.67936 0 1 1 0 67.3536z m233.0368 0H450.42688a33.67936 33.67936 0 1 1 0-67.3536h126.64832a33.67936 33.67936 0 1 1 0 67.3536z m233.0368 0h-126.67904a33.67936 33.67936 0 1 1 0-67.3536h126.65344a33.67936 33.67936 0 1 1 0 67.3536zM344.064 741.02784H217.39008a33.67936 33.67936 0 1 1 0-67.3536H344.064a33.67936 33.67936 0 1 1 0 67.3536z m233.0368 0H450.42688a33.67936 33.67936 0 1 1 0-67.3536h126.64832a33.67936 33.67936 0 1 1 0 67.3536z" fill="#FF7214" p-id="4859"></path></svg>