<?xml version="1.0" standalone="no"?><!DOCTYPE svg PUBLIC "-//W3C//DTD SVG 1.1//EN" "http://www.w3.org/Graphics/SVG/1.1/DTD/svg11.dtd"><svg t="1605971864562" class="icon" viewBox="0 0 1024 1024" version="1.1" xmlns="http://www.w3.org/2000/svg" p-id="5727" xmlns:xlink="http://www.w3.org/1999/xlink" width="200" height="200"><defs><style type="text/css"></style></defs><path d="M512 952.32a440.32 440.32 0 1 1 440.32-440.32 440.832 440.832 0 0 1-440.32 440.32z m0-809.62048A369.30048 369.30048 0 1 0 881.30048 512 369.72032 369.72032 0 0 0 512 142.69952z" fill="#4A4A4A" p-id="5728"></path><path d="M740.82816 766.6432a35.28192 35.28192 0 0 1-22.912-8.42752l-229.888-195.47648a49.664 49.664 0 0 1-17.52064-37.888V280.86784a35.41504 35.41504 0 1 1 70.8352 0v234.1632l222.44864 189.12768a35.456 35.456 0 0 1-22.9632 62.48448z" fill="#FF7214" p-id="5729"></path></svg>