<?xml version="1.0" standalone="no"?><!DOCTYPE svg PUBLIC "-//W3C//DTD SVG 1.1//EN" "http://www.w3.org/Graphics/SVG/1.1/DTD/svg11.dtd"><svg t="1605850179501" class="icon" viewBox="0 0 1024 1024" version="1.1" xmlns="http://www.w3.org/2000/svg" p-id="5740" xmlns:xlink="http://www.w3.org/1999/xlink" width="128" height="128"><defs><style type="text/css"></style></defs><path d="M911.21152 112.64H197.03296a46.2592 46.2592 0 0 0-46.22848 46.18752v215.1168h-46.1568a32.94208 32.94208 0 1 0 0 65.88928h46.1568v122.99776h-46.1568a32.9472 32.9472 0 1 0 0 65.88928h46.1568v241.57184A46.2592 46.2592 0 0 0 197.03296 916.48h714.17856a46.2592 46.2592 0 0 0 46.22848-46.19264V158.82752A46.2592 46.2592 0 0 0 911.21152 112.64z m-19.712 737.95072H216.74496V628.736h48.35328a32.9472 32.9472 0 1 0 0-65.88928h-48.35328V439.808h48.35328a32.94208 32.94208 0 1 0 0-65.88928h-48.35328V178.52928h674.75456v672.06144z" fill="#4A4A4A" p-id="5741"></path><path d="M570.88 510.464a142.7456 142.7456 0 1 1 142.76096-142.7456A142.91456 142.91456 0 0 1 570.88 510.464z m0-219.60704a76.86144 76.86144 0 1 0 76.87168 76.85632A76.94848 76.94848 0 0 0 570.88 290.8672z m183.90528 511.68256H386.97984a46.21824 46.21824 0 0 1-46.1312-49.408 230.62528 230.62528 0 0 1 460.06272 0 46.22336 46.22336 0 0 1-46.12608 49.41824z m-19.59936-44.76416z m-325.72928-21.11488h322.84672a164.7616 164.7616 0 0 0-322.84672 0.01024z" fill="#FF7214" p-id="5742"></path></svg>