<?xml version="1.0" standalone="no"?><!DOCTYPE svg PUBLIC "-//W3C//DTD SVG 1.1//EN" "http://www.w3.org/Graphics/SVG/1.1/DTD/svg11.dtd"><svg t="1605971616740" class="icon" viewBox="0 0 1024 1024" version="1.1" xmlns="http://www.w3.org/2000/svg" p-id="5437" xmlns:xlink="http://www.w3.org/1999/xlink" width="200" height="200"><defs><style type="text/css"></style></defs><path d="M606.03392 928.4352H414.68928a47.99488 47.99488 0 0 1-47.9232-47.96416v-235.18208a48 48 0 0 1 47.9232-47.96928h191.34464a48 48 0 0 1 47.91808 47.96928v235.18208a47.99488 47.99488 0 0 1-47.91808 47.96416z m-170.91072-68.41856h150.47168v-194.27328H435.1232v194.27328z m170.91072-194.27328z" fill="#FF7214" p-id="5438"></path><path d="M952.28928 401.82784a47.73376 47.73376 0 0 0-5.01248-23.21408l-126.81216-254.74048A47.68768 47.68768 0 0 0 777.48736 97.28H241.36192a48.21504 48.21504 0 0 0-43.29472 27.25376l-121.7024 254.6688A47.75424 47.75424 0 0 0 71.68 401.65376 114.4576 114.4576 0 0 0 147.36384 504.832v374.04672a47.96928 47.96928 0 0 0 47.9744 47.84128h624.50176a47.96928 47.96928 0 0 0 47.96928-47.85664V507.62752a114.54464 114.54464 0 0 0 84.48-105.79968zM215.78752 858.45504V507.94496a115.2 115.2 0 0 0 52.38784-29.89568 115.10272 115.10272 0 0 0 162.37568 0.45568 115.10784 115.10784 0 0 0 162.3808-0.45568 115.13856 115.13856 0 0 0 162.8672 0 115.4304 115.4304 0 0 0 43.58144 27.23328v353.17248H215.78752z m621.45536-414.92992a46.73024 46.73024 0 0 1-46.73024-46.62784 34.17088 34.17088 0 0 0-34.21184-34.13504c-0.17408 0-0.32768 0.04608-0.512 0.0512s-0.32256-0.0512-0.512-0.0512a34.17088 34.17088 0 0 0-34.21184 34.13504 46.73024 46.73024 0 0 1-93.45536 0 34.17088 34.17088 0 0 0-34.21184-34.13504c-0.16896 0-0.32256 0.04608-0.512 0.0512s-0.32768-0.0512-0.512-0.0512a34.17088 34.17088 0 0 0-34.21184 34.13504 46.73024 46.73024 0 0 1-93.46048 0 34.21184 34.21184 0 0 0-68.42368 0 46.73024 46.73024 0 0 1-93.46048 0 34.17088 34.17088 0 0 0-34.21184-34.13504c-0.16896 0-0.32768 0.04608-0.512 0.0512s-0.32768-0.0512-0.512-0.0512a34.17088 34.17088 0 0 0-34.10944 34.13504 46.7456 46.7456 0 0 1-92.98432 6.72768l113.78176-238.08h510.5408l118.64576 238.336a46.56128 46.56128 0 0 1-46.21312 39.64416z" fill="#4A4A4A" p-id="5439"></path></svg>