<?xml version="1.0" standalone="no"?><!DOCTYPE svg PUBLIC "-//W3C//DTD SVG 1.1//EN" "http://www.w3.org/Graphics/SVG/1.1/DTD/svg11.dtd"><svg t="1605971438632" class="icon" viewBox="0 0 1024 1024" version="1.1" xmlns="http://www.w3.org/2000/svg" p-id="5002" xmlns:xlink="http://www.w3.org/1999/xlink" width="200" height="200"><defs><style type="text/css"></style></defs><path d="M745.69728 778.24a32.0512 32.0512 0 0 1 0-64.09728 145.09056 145.09056 0 0 0 101.888-42.78784 135.95136 135.95136 0 0 0 40.6784-96.56832 138.65984 138.65984 0 0 0-123.94496-137.91232 44.74368 44.74368 0 0 1-39.78752-40.54528 217.97376 217.97376 0 0 0-434.39616 1.05472 44.544 44.544 0 0 1-37.5296 40.41216A139.52512 139.52512 0 0 0 135.68 577.75104c1.39264 75.20768 65.5104 136.39168 142.92992 136.39168a32.0512 32.0512 0 0 1 0 64.09728C166.53824 778.24 73.728 688.83456 71.68 578.93888A204.04224 204.04224 0 0 1 227.93728 377.344a281.984 281.984 0 0 1 558.62272-1.99168A202.66496 202.66496 0 0 1 952.32 574.64832a199.64416 199.64416 0 0 1-59.392 141.98784A209.51552 209.51552 0 0 1 745.69728 778.24z" fill="#4A4A4A" p-id="5003"></path><path d="M688.99328 649.86624a32.54784 32.54784 0 0 1-45.43488 4.608l-96.72704-77.824v287.48288a32.30208 32.30208 0 0 1-64.59392 0v-287.48288L385.536 654.45888a32.55296 32.55296 0 0 1-45.44-4.608 31.6672 31.6672 0 0 1 4.65408-44.90752l141.21984-113.6128a45.88544 45.88544 0 0 1 57.16992 0l141.21472 113.6128a31.66208 31.66208 0 0 1 4.63872 44.92288z" fill="#FF7214" p-id="5004"></path></svg>